MFile 0 1 21
MTrk
0 Tempo 500000
0 PrCh ch=1 p=0
0 On ch=1 n=69 v=59
0 On ch=1 n=76 v=64
1 On ch=1 n=62 v=66
1 On ch=1 n=66 v=50
1 On ch=1 n=85 v=44
1 On ch=1 n=93 v=30
1 On ch=1 n=94 v=42
1 On ch=1 n=95 v=48
1 On ch=1 n=100 v=15
2 On ch=1 n=84 v=32
4 Off ch=1 n=93 v=64
13 Off ch=1 n=100 v=64
14 Off ch=1 n=66 v=64
14 Off ch=1 n=76 v=64
14 Off ch=1 n=84 v=64
14 Off ch=1 n=85 v=64
14 Off ch=1 n=94 v=64
14 Off ch=1 n=95 v=64
16 Off ch=1 n=69 v=64
17 Off ch=1 n=62 v=64
18 On ch=1 n=69 v=60
18 On ch=1 n=76 v=64
18 On ch=1 n=92 v=27
18 On ch=1 n=93 v=43
18 On ch=1 n=95 v=45
19 On ch=1 n=62 v=63
19 On ch=1 n=66 v=50
19 On ch=1 n=84 v=25
19 On ch=1 n=85 v=43
19 On ch=1 n=94 v=50
19 On ch=1 n=100 v=24
21 Off ch=1 n=92 v=64
22 Off ch=1 n=93 v=64
25 Off ch=1 n=100 v=64
26 Off ch=1 n=66 v=64
26 Off ch=1 n=84 v=64
26 Off ch=1 n=85 v=64
26 Off ch=1 n=94 v=64
26 Off ch=1 n=95 v=64
27 Off ch=1 n=76 v=64
29 Off ch=1 n=62 v=64
29 Off ch=1 n=69 v=64
31 On ch=1 n=66 v=52
31 On ch=1 n=69 v=61
31 On ch=1 n=72 v=58
31 On ch=1 n=74 v=37
31 On ch=1 n=85 v=46
31 On ch=1 n=91 v=49
31 On ch=1 n=94 v=48
32 On ch=1 n=62 v=65
32 On ch=1 n=100 v=34
37 On ch=1 n=76 v=64
37 On ch=1 n=92 v=27
37 On ch=1 n=93 v=46
37 On ch=1 n=95 v=42
37 On ch=1 n=99 v=11
39 Off ch=1 n=72 v=64
39 Off ch=1 n=91 v=64
40 Off ch=1 n=92 v=64
40 Off ch=1 n=93 v=64
40 Off ch=1 n=99 v=64
43 Off ch=1 n=100 v=64
44 Off ch=1 n=94 v=64
45 Off ch=1 n=66 v=64
45 Off ch=1 n=74 v=64
45 Off ch=1 n=76 v=64
45 Off ch=1 n=85 v=64
45 Off ch=1 n=95 v=64
48 Off ch=1 n=62 v=64
48 Off ch=1 n=69 v=64
49 On ch=1 n=79 v=82
49 On ch=1 n=86 v=65
49 On ch=1 n=93 v=37
50 On ch=1 n=67 v=25
50 On ch=1 n=71 v=50
50 On ch=1 n=90 v=41
50 On ch=1 n=94 v=44
50 On ch=1 n=95 v=27
50 On ch=1 n=99 v=31
50 On ch=1 n=101 v=28
53 Off ch=1 n=93 v=64
53 Off ch=1 n=94 v=64
56 Off ch=1 n=67 v=64
56 Off ch=1 n=95 v=64
57 Off ch=1 n=71 v=64
57 Off ch=1 n=90 v=64
57 Off ch=1 n=99 v=64
57 Off ch=1 n=101 v=64
60 Off ch=1 n=79 v=64
60 Off ch=1 n=86 v=64
68 On ch=1 n=92 v=27
68 On ch=1 n=93 v=44
68 On ch=1 n=94 v=49
68 On ch=1 n=95 v=25
71 Off ch=1 n=92 v=64
71 Off ch=1 n=93 v=64
71 Off ch=1 n=95 v=64
72 Off ch=1 n=94 v=64
74 On ch=1 n=67 v=76
74 On ch=1 n=74 v=63
74 On ch=1 n=95 v=35
75 On ch=1 n=89 v=32
76 On ch=1 n=83 v=13
80 Off ch=1 n=83 v=64
81 Off ch=1 n=95 v=64
82 Off ch=1 n=89 v=64
84 Off ch=1 n=67 v=64
84 Off ch=1 n=74 v=64
98 On ch=1 n=67 v=69
98 On ch=1 n=74 v=62
99 On ch=1 n=64 v=42
99 On ch=1 n=72 v=54
99 On ch=1 n=83 v=39
99 On ch=1 n=89 v=32
99 On ch=1 n=91 v=50
99 On ch=1 n=92 v=33
99 On ch=1 n=100 v=31
100 On ch=1 n=55 v=19
100 On ch=1 n=93 v=10
103 Off ch=1 n=55 v=64
104 Off ch=1 n=93 v=64
106 Off ch=1 n=64 v=64
106 Off ch=1 n=72 v=64
106 Off ch=1 n=83 v=64
106 Off ch=1 n=89 v=64
106 Off ch=1 n=91 v=64
106 Off ch=1 n=92 v=64
106 Off ch=1 n=100 v=64
109 Off ch=1 n=67 v=64
109 Off ch=1 n=74 v=64
117 On ch=1 n=64 v=68
117 On ch=1 n=67 v=49
117 On ch=1 n=71 v=65
117 On ch=1 n=86 v=47
117 On ch=1 n=95 v=36
118 On ch=1 n=60 v=39
118 On ch=1 n=94 v=47
118 On ch=1 n=101 v=12
119 On ch=1 n=80 v=19
123 On ch=1 n=92 v=37
123 On ch=1 n=93 v=45
124 Off ch=1 n=60 v=64
125 Off ch=1 n=67 v=64
125 Off ch=1 n=86 v=64
126 Off ch=1 n=80 v=64
126 Off ch=1 n=92 v=64
126 Off ch=1 n=93 v=64
126 Off ch=1 n=95 v=64
126 Off ch=1 n=101 v=64
127 Off ch=1 n=71 v=64
127 Off ch=1 n=94 v=64
128 Off ch=1 n=64 v=64
136 On ch=1 n=60 v=65
136 On ch=1 n=64 v=45
136 On ch=1 n=67 v=58
136 On ch=1 n=74 v=45
136 On ch=1 n=92 v=34
136 On ch=1 n=98 v=16
137 On ch=1 n=55 v=35
137 On ch=1 n=82 v=35
137 On ch=1 n=83 v=47
137 On ch=1 n=89 v=14
142 Off ch=1 n=89 v=64
142 Off ch=1 n=98 v=64
143 Off ch=1 n=55 v=64
143 Off ch=1 n=64 v=64
143 Off ch=1 n=74 v=64
143 Off ch=1 n=83 v=64
143 Off ch=1 n=92 v=64
144 Off ch=1 n=82 v=64
145 Off ch=1 n=67 v=64
146 Off ch=1 n=60 v=64
148 On ch=1 n=67 v=35
148 On ch=1 n=69 v=28
148 On ch=1 n=71 v=32
148 On ch=1 n=74 v=22
149 On ch=1 n=58 v=29
149 On ch=1 n=63 v=31
149 On ch=1 n=65 v=31
150 Off ch=1 n=67 v=64
151 Off ch=1 n=58 v=64
151 Off ch=1 n=63 v=64
151 Off ch=1 n=65 v=64
151 Off ch=1 n=69 v=64
151 Off ch=1 n=71 v=64
151 Off ch=1 n=74 v=64
153 On ch=1 n=65 v=68
153 On ch=1 n=72 v=63
154 On ch=1 n=69 v=53
154 On ch=1 n=79 v=43
154 On ch=1 n=87 v=32
154 On ch=1 n=88 v=50
154 On ch=1 n=97 v=34
155 On ch=1 n=60 v=37
155 On ch=1 n=94 v=18
157 On ch=1 n=103 v=11
160 Off ch=1 n=94 v=64
161 Off ch=1 n=60 v=64
161 Off ch=1 n=79 v=64
161 Off ch=1 n=97 v=64
161 Off ch=1 n=103 v=64
162 Off ch=1 n=69 v=64
162 Off ch=1 n=87 v=64
162 Off ch=1 n=88 v=64
164 Off ch=1 n=72 v=64
165 Off ch=1 n=65 v=64
166 On ch=1 n=67 v=70
166 On ch=1 n=71 v=55
166 On ch=1 n=74 v=62
166 On ch=1 n=81 v=41
167 On ch=1 n=62 v=40
167 On ch=1 n=89 v=34
167 On ch=1 n=90 v=51
167 On ch=1 n=96 v=19
167 On ch=1 n=99 v=35
168 On ch=1 n=93 v=43
172 On ch=1 n=92 v=33
172 On ch=1 n=94 v=44
172 On ch=1 n=95 v=28
172 Off ch=1 n=96 v=64
174 Off ch=1 n=62 v=64
174 Off ch=1 n=71 v=64
174 Off ch=1 n=81 v=64
174 Off ch=1 n=89 v=64
175 Off ch=1 n=90 v=64
175 Off ch=1 n=92 v=64
175 Off ch=1 n=93 v=64
175 Off ch=1 n=95 v=64
175 Off ch=1 n=99 v=64
176 Off ch=1 n=74 v=64
176 Off ch=1 n=94 v=64
177 Off ch=1 n=67 v=64
178 On ch=1 n=66 v=71
178 On ch=1 n=70 v=53
178 On ch=1 n=73 v=64
178 On ch=1 n=80 v=42
179 On ch=1 n=61 v=38
179 On ch=1 n=88 v=48
179 On ch=1 n=89 v=48
179 On ch=1 n=95 v=14
179 On ch=1 n=98 v=32
184 On ch=1 n=72 v=62
185 On ch=1 n=60 v=37
185 On ch=1 n=65 v=66
185 On ch=1 n=79 v=42
185 On ch=1 n=87 v=31
185 On ch=1 n=94 v=20
185 Off ch=1 n=95 v=64
185 On ch=1 n=97 v=34
186 Off ch=1 n=61 v=64
186 Off ch=1 n=66 v=64
186 On ch=1 n=69 v=52
186 Off ch=1 n=70 v=64
186 Off ch=1 n=80 v=64
187 Off ch=1 n=98 v=64
188 Off ch=1 n=73 v=64
188 On ch=1 n=103 v=12
191 Off ch=1 n=89 v=64
191 Off ch=1 n=94 v=64
191 Off ch=1 n=103 v=64
192 Off ch=1 n=60 v=64
192 Off ch=1 n=69 v=64
192 Off ch=1 n=79 v=64
192 Off ch=1 n=87 v=64
192 Off ch=1 n=88 v=64
192 Off ch=1 n=97 v=64
195 Off ch=1 n=65 v=64
195 Off ch=1 n=72 v=64
197 On ch=1 n=64 v=65
197 On ch=1 n=67 v=48
197 On ch=1 n=69 v=29
197 On ch=1 n=71 v=62
197 On ch=1 n=74 v=23
197 On ch=1 n=76 v=78
197 On ch=1 n=77 v=15
197 On ch=1 n=79 v=66
197 On ch=1 n=86 v=44
197 On ch=1 n=95 v=32
198 On ch=1 n=60 v=39
198 On ch=1 n=80 v=17
200 Off ch=1 n=69 v=64
200 Off ch=1 n=74 v=64
200 Off ch=1 n=77 v=64
203 Off ch=1 n=80 v=64
204 Off ch=1 n=60 v=64
204 On ch=1 n=72 v=75
204 Off ch=1 n=95 v=64
205 Off ch=1 n=71 v=64
205 On ch=1 n=94 v=34
205 On ch=1 n=95 v=50
206 On ch=1 n=101 v=15
207 On ch=1 n=60 v=14
207 Off ch=1 n=64 v=64
210 Off ch=1 n=60 v=64
211 Off ch=1 n=101 v=64
213 Off ch=1 n=67 v=64
213 On ch=1 n=83 v=64
213 Off ch=1 n=86 v=64
213 On ch=1 n=90 v=44
213 Off ch=1 n=94 v=64
213 Off ch=1 n=95 v=64
213 On ch=1 n=98 v=28
214 On ch=1 n=64 v=21
214 On ch=1 n=71 v=49
214 On ch=1 n=99 v=29
215 On ch=1 n=92 v=14
216 Off ch=1 n=72 v=64
220 Off ch=1 n=64 v=64
220 Off ch=1 n=92 v=64
220 Off ch=1 n=99 v=64
221 Off ch=1 n=71 v=64
221 On ch=1 n=77 v=77
221 On ch=1 n=81 v=56
221 On ch=1 n=84 v=60
221 Off ch=1 n=90 v=64
221 On ch=1 n=92 v=26
222 On ch=1 n=65 v=25
222 On ch=1 n=72 v=51
222 Off ch=1 n=76 v=64
222 Off ch=1 n=83 v=64
222 On ch=1 n=94 v=41
222 On ch=1 n=99 v=30
222 On ch=1 n=100 v=31
223 Off ch=1 n=79 v=64
223 On ch=1 n=97 v=15
224 Off ch=1 n=92 v=64
224 Off ch=1 n=98 v=64
225 Off ch=1 n=94 v=64
226 Off ch=1 n=97 v=64
228 Off ch=1 n=65 v=64
229 Off ch=1 n=72 v=64
229 Off ch=1 n=99 v=64
229 Off ch=1 n=100 v=64
230 Off ch=1 n=81 v=64
232 Off ch=1 n=77 v=64
232 Off ch=1 n=84 v=64
234 On ch=1 n=69 v=47
234 On ch=1 n=74 v=75
234 On ch=1 n=77 v=55
234 On ch=1 n=81 v=64
234 On ch=1 n=88 v=43
234 On ch=1 n=96 v=45
234 On ch=1 n=97 v=31
235 On ch=1 n=62 v=15
235 On ch=1 n=90 v=43
237 On ch=1 n=103 v=12
239 On ch=1 n=76 v=77
240 Off ch=1 n=62 v=64
240 On ch=1 n=71 v=50
240 On ch=1 n=79 v=56
240 On ch=1 n=83 v=62
240 On ch=1 n=99 v=29
240 Off ch=1 n=103 v=64
241 On ch=1 n=64 v=18
241 Off ch=1 n=77 v=64
241 On ch=1 n=92 v=14
241 Off ch=1 n=97 v=64
242 Off ch=1 n=69 v=64
242 Off ch=1 n=96 v=64
244 Off ch=1 n=74 v=64
244 Off ch=1 n=81 v=64
246 Off ch=1 n=92 v=64
247 On ch=1 n=63 v=18
247 Off ch=1 n=64 v=64
247 Off ch=1 n=90 v=64
247 Off ch=1 n=99 v=64
248 Off ch=1 n=79 v=64
248 Off ch=1 n=88 v=64
249 Off ch=1 n=71 v=64
250 Off ch=1 n=63 v=64
250 Off ch=1 n=83 v=64
251 Off ch=1 n=76 v=64
252 On ch=1 n=72 v=74
252 On ch=1 n=76 v=56
252 On ch=1 n=79 v=64
252 On ch=1 n=95 v=46
253 On ch=1 n=69 v=49
253 On ch=1 n=94 v=32
253 On ch=1 n=97 v=33
254 On ch=1 n=60 v=14
255 On ch=1 n=98 v=9
258 Off ch=1 n=60 v=64
258 Off ch=1 n=98 v=64
260 Off ch=1 n=69 v=64
260 Off ch=1 n=76 v=64
260 Off ch=1 n=94 v=64
260 Off ch=1 n=95 v=64
260 Off ch=1 n=97 v=64
262 Off ch=1 n=79 v=64
263 Off ch=1 n=72 v=64
264 On ch=1 n=69 v=74
264 On ch=1 n=72 v=51
264 On ch=1 n=76 v=64
264 On ch=1 n=91 v=49
265 On ch=1 n=64 v=39
265 On ch=1 n=83 v=41
265 On ch=1 n=92 v=34
265 On ch=1 n=93 v=49
265 On ch=1 n=98 v=15
265 On ch=1 n=100 v=34
266 On ch=1 n=85 v=16
270 On ch=1 n=78 v=64
271 On ch=1 n=65 v=39
271 On ch=1 n=71 v=75
271 On ch=1 n=74 v=60
271 On ch=1 n=94 v=48
271 On ch=1 n=99 v=32
272 Off ch=1 n=64 v=64
272 Off ch=1 n=72 v=64
272 Off ch=1 n=85 v=64
272 On ch=1 n=97 v=15
273 On ch=1 n=59 v=10
273 On ch=1 n=87 v=13
273 Off ch=1 n=91 v=64
273 Off ch=1 n=98 v=64
273 Off ch=1 n=100 v=64
274 Off ch=1 n=92 v=64
274 Off ch=1 n=94 v=64
275 Off ch=1 n=69 v=64
275 Off ch=1 n=76 v=64
276 Off ch=1 n=97 v=64
277 Off ch=1 n=59 v=64
277 Off ch=1 n=65 v=64
277 On ch=1 n=79 v=34
277 On ch=1 n=81 v=39
277 Off ch=1 n=87 v=64
277 On ch=1 n=89 v=32
278 On ch=1 n=62 v=37
278 On ch=1 n=67 v=67
278 On ch=1 n=96 v=15
281 Off ch=1 n=78 v=64
282 Off ch=1 n=93 v=64
283 Off ch=1 n=83 v=64
283 Off ch=1 n=96 v=64
284 Off ch=1 n=62 v=64
284 Off ch=1 n=81 v=64
284 Off ch=1 n=89 v=64
284 Off ch=1 n=99 v=64
285 Off ch=1 n=71 v=64
285 Off ch=1 n=79 v=64
287 Off ch=1 n=67 v=64
287 Off ch=1 n=74 v=64
295 On ch=1 n=67 v=70
295 On ch=1 n=74 v=62
295 On ch=1 n=91 v=50
295 On ch=1 n=92 v=33
296 On ch=1 n=64 v=42
296 On ch=1 n=72 v=54
296 On ch=1 n=83 v=39
296 On ch=1 n=89 v=32
296 On ch=1 n=100 v=32
297 On ch=1 n=55 v=15
297 On ch=1 n=93 v=14
300 Off ch=1 n=55 v=64
300 Off ch=1 n=93 v=64
303 Off ch=1 n=64 v=64
303 Off ch=1 n=72 v=64
303 Off ch=1 n=83 v=64
303 Off ch=1 n=89 v=64
303 Off ch=1 n=91 v=64
303 Off ch=1 n=92 v=64
303 Off ch=1 n=100 v=64
306 Off ch=1 n=67 v=64
306 Off ch=1 n=74 v=64
314 On ch=1 n=64 v=68
314 On ch=1 n=67 v=49
314 On ch=1 n=71 v=64
314 On ch=1 n=86 v=45
314 On ch=1 n=94 v=45
314 On ch=1 n=95 v=35
315 On ch=1 n=60 v=39
315 On ch=1 n=101 v=14
316 On ch=1 n=80 v=19
320 On ch=1 n=92 v=30
320 On ch=1 n=93 v=42
320 On ch=1 n=102 v=21
321 Off ch=1 n=60 v=64
322 Off ch=1 n=67 v=64
323 Off ch=1 n=80 v=64
323 Off ch=1 n=86 v=64
323 Off ch=1 n=92 v=64
323 Off ch=1 n=93 v=64
323 Off ch=1 n=94 v=64
323 Off ch=1 n=95 v=64
323 Off ch=1 n=101 v=64
323 Off ch=1 n=102 v=64
324 Off ch=1 n=64 v=64
324 Off ch=1 n=71 v=64
332 On ch=1 n=60 v=64
332 On ch=1 n=64 v=46
332 On ch=1 n=67 v=59
332 On ch=1 n=74 v=44
332 On ch=1 n=92 v=35
333 On ch=1 n=55 v=34
333 On ch=1 n=82 v=34
333 On ch=1 n=83 v=49
333 On ch=1 n=89 v=12
333 On ch=1 n=98 v=14
338 Off ch=1 n=89 v=64
339 Off ch=1 n=55 v=64
339 Off ch=1 n=98 v=64
340 Off ch=1 n=64 v=64
340 Off ch=1 n=74 v=64
340 Off ch=1 n=82 v=64
340 Off ch=1 n=83 v=64
340 Off ch=1 n=92 v=64
342 Off ch=1 n=67 v=64
343 Off ch=1 n=60 v=64
345 On ch=1 n=58 v=31
345 On ch=1 n=67 v=36
345 On ch=1 n=69 v=29
345 On ch=1 n=71 v=30
346 On ch=1 n=45 v=34
347 Off ch=1 n=67 v=64
347 Off ch=1 n=69 v=64
347 Off ch=1 n=71 v=64
348 Off ch=1 n=45 v=64
348 Off ch=1 n=58 v=64
350 On ch=1 n=65 v=69
350 On ch=1 n=72 v=63
351 On ch=1 n=60 v=37
351 On ch=1 n=69 v=52
351 On ch=1 n=79 v=42
351 On ch=1 n=87 v=31
351 On ch=1 n=88 v=48
351 On ch=1 n=94 v=18
351 On ch=1 n=97 v=34
352 On ch=1 n=103 v=12
357 Off ch=1 n=94 v=64
357 Off ch=1 n=103 v=64
358 Off ch=1 n=60 v=64
358 Off ch=1 n=69 v=64
358 Off ch=1 n=79 v=64
358 Off ch=1 n=87 v=64
358 Off ch=1 n=88 v=64
358 Off ch=1 n=97 v=64
361 Off ch=1 n=65 v=64
361 Off ch=1 n=72 v=64
363 On ch=1 n=67 v=70
363 On ch=1 n=71 v=54
363 On ch=1 n=74 v=63
363 On ch=1 n=81 v=41
363 On ch=1 n=89 v=35
363 On ch=1 n=90 v=50
363 On ch=1 n=99 v=34
364 On ch=1 n=62 v=40
364 On ch=1 n=96 v=19
369 On ch=1 n=92 v=30
369 On ch=1 n=93 v=46
369 On ch=1 n=94 v=46
369 On ch=1 n=95 v=29
370 Off ch=1 n=89 v=64
371 Off ch=1 n=62 v=64
371 Off ch=1 n=71 v=64
371 Off ch=1 n=81 v=64
371 Off ch=1 n=90 v=64
371 Off ch=1 n=96 v=64
372 Off ch=1 n=92 v=64
372 Off ch=1 n=93 v=64
372 Off ch=1 n=95 v=64
372 Off ch=1 n=99 v=64
373 Off ch=1 n=67 v=64
373 Off ch=1 n=74 v=64
373 Off ch=1 n=94 v=64
375 On ch=1 n=66 v=71
375 On ch=1 n=70 v=52
375 On ch=1 n=73 v=63
375 On ch=1 n=80 v=43
376 On ch=1 n=61 v=38
376 On ch=1 n=88 v=48
376 On ch=1 n=89 v=49
376 On ch=1 n=95 v=14
376 On ch=1 n=98 v=34
381 On ch=1 n=65 v=67
382 On ch=1 n=60 v=38
382 On ch=1 n=69 v=52
382 Off ch=1 n=70 v=64
382 On ch=1 n=72 v=62
382 On ch=1 n=79 v=42
382 On ch=1 n=87 v=31
382 On ch=1 n=94 v=19
382 Off ch=1 n=95 v=64
382 On ch=1 n=97 v=34
382 On ch=1 n=103 v=12
383 Off ch=1 n=61 v=64
383 Off ch=1 n=66 v=64
383 Off ch=1 n=80 v=64
384 Off ch=1 n=98 v=64
385 Off ch=1 n=73 v=64
388 Off ch=1 n=89 v=64
388 Off ch=1 n=94 v=64
388 Off ch=1 n=103 v=64
389 Off ch=1 n=60 v=64
389 Off ch=1 n=69 v=64
389 Off ch=1 n=79 v=64
389 Off ch=1 n=87 v=64
389 Off ch=1 n=88 v=64
389 Off ch=1 n=97 v=64
392 Off ch=1 n=65 v=64
392 Off ch=1 n=72 v=64
393 On ch=1 n=64 v=65
393 On ch=1 n=69 v=28
393 On ch=1 n=71 v=62
394 On ch=1 n=67 v=51
394 On ch=1 n=74 v=25
394 On ch=1 n=76 v=78
394 On ch=1 n=77 v=14
394 On ch=1 n=79 v=65
394 On ch=1 n=80 v=23
394 On ch=1 n=86 v=42
394 On ch=1 n=95 v=31
395 On ch=1 n=60 v=39
396 Off ch=1 n=69 v=64
397 Off ch=1 n=74 v=64
397 Off ch=1 n=77 v=64
400 Off ch=1 n=80 v=64
401 Off ch=1 n=60 v=64
401 Off ch=1 n=67 v=64
401 On ch=1 n=72 v=75
401 Off ch=1 n=86 v=64
401 Off ch=1 n=95 v=64
402 On ch=1 n=67 v=44
402 Off ch=1 n=71 v=64
402 On ch=1 n=86 v=44
402 On ch=1 n=94 v=35
402 On ch=1 n=95 v=48
403 On ch=1 n=60 v=13
403 On ch=1 n=101 v=11
404 Off ch=1 n=64 v=64
407 Off ch=1 n=60 v=64
408 Off ch=1 n=101 v=64
409 Off ch=1 n=67 v=64
409 Off ch=1 n=86 v=64
410 On ch=1 n=71 v=50
410 On ch=1 n=83 v=64
410 On ch=1 n=90 v=45
410 Off ch=1 n=94 v=64
410 On ch=1 n=98 v=27
410 On ch=1 n=99 v=29
411 On ch=1 n=64 v=23
412 Off ch=1 n=72 v=64
412 On ch=1 n=92 v=14
417 Off ch=1 n=64 v=64
417 Off ch=1 n=92 v=64
417 Off ch=1 n=95 v=64
417 Off ch=1 n=99 v=64
418 Off ch=1 n=71 v=64
418 On ch=1 n=77 v=78
418 On ch=1 n=81 v=56
418 On ch=1 n=84 v=57
418 Off ch=1 n=90 v=64
418 On ch=1 n=92 v=26
418 On ch=1 n=94 v=37
419 On ch=1 n=65 v=24
419 On ch=1 n=72 v=50
419 Off ch=1 n=76 v=64
419 Off ch=1 n=83 v=64
419 On ch=1 n=97 v=15
419 On ch=1 n=99 v=29
420 Off ch=1 n=79 v=64
420 Off ch=1 n=98 v=64
421 Off ch=1 n=92 v=64
422 Off ch=1 n=94 v=64
423 Off ch=1 n=97 v=64
425 Off ch=1 n=65 v=64
426 Off ch=1 n=72 v=64
426 Off ch=1 n=81 v=64
426 Off ch=1 n=99 v=64
429 Off ch=1 n=77 v=64
429 Off ch=1 n=84 v=64
430 On ch=1 n=74 v=75
430 On ch=1 n=81 v=64
431 On ch=1 n=69 v=48
431 On ch=1 n=77 v=56
431 On ch=1 n=88 v=43
431 On ch=1 n=96 v=46
431 On ch=1 n=97 v=31
432 On ch=1 n=62 v=14
433 On ch=1 n=90 v=42
434 On ch=1 n=103 v=9
436 Off ch=1 n=62 v=64
436 On ch=1 n=76 v=77
436 On ch=1 n=83 v=62
437 On ch=1 n=71 v=50
437 Off ch=1 n=77 v=64
437 On ch=1 n=79 v=56
437 On ch=1 n=99 v=30
437 Off ch=1 n=103 v=64
438 On ch=1 n=64 v=19
438 Off ch=1 n=96 v=64
438 Off ch=1 n=97 v=64
439 Off ch=1 n=69 v=64
439 On ch=1 n=92 v=10
440 Off ch=1 n=81 v=64
441 Off ch=1 n=74 v=64
444 Off ch=1 n=64 v=64
444 Off ch=1 n=90 v=64
444 Off ch=1 n=92 v=64
444 Off ch=1 n=99 v=64
445 Off ch=1 n=71 v=64
445 Off ch=1 n=79 v=64
445 Off ch=1 n=88 v=64
447 Off ch=1 n=83 v=64
448 Off ch=1 n=76 v=64
449 On ch=1 n=72 v=75
449 On ch=1 n=76 v=56
449 On ch=1 n=79 v=64
449 On ch=1 n=95 v=46
449 On ch=1 n=97 v=35
450 On ch=1 n=69 v=49
450 On ch=1 n=94 v=32
451 On ch=1 n=60 v=12
455 Off ch=1 n=60 v=64
456 Off ch=1 n=97 v=64
457 Off ch=1 n=69 v=64
457 Off ch=1 n=76 v=64
457 Off ch=1 n=94 v=64
457 Off ch=1 n=95 v=64
459 Off ch=1 n=79 v=64
460 Off ch=1 n=72 v=64
461 On ch=1 n=69 v=74
461 On ch=1 n=72 v=52
461 On ch=1 n=76 v=64
461 On ch=1 n=83 v=41
461 On ch=1 n=91 v=48
462 On ch=1 n=64 v=40
462 On ch=1 n=92 v=35
462 On ch=1 n=93 v=48
462 On ch=1 n=98 v=15
462 On ch=1 n=100 v=30
463 On ch=1 n=85 v=17
467 On ch=1 n=71 v=74
467 On ch=1 n=74 v=60
467 On ch=1 n=78 v=63
467 On ch=1 n=79 v=17
467 On ch=1 n=94 v=42
468 Off ch=1 n=72 v=64
468 On ch=1 n=87 v=9
468 On ch=1 n=99 v=31
469 On ch=1 n=59 v=13
469 Off ch=1 n=64 v=64
469 On ch=1 n=65 v=39
469 Off ch=1 n=85 v=64
469 Off ch=1 n=91 v=64
469 On ch=1 n=97 v=13
470 Off ch=1 n=79 v=64
470 Off ch=1 n=92 v=64
470 Off ch=1 n=98 v=64
470 Off ch=1 n=100 v=64
471 Off ch=1 n=94 v=64
472 Off ch=1 n=69 v=64
472 Off ch=1 n=76 v=64
472 Off ch=1 n=97 v=64
473 Off ch=1 n=59 v=64
474 On ch=1 n=62 v=37
474 Off ch=1 n=65 v=64
474 On ch=1 n=67 v=67
474 On ch=1 n=81 v=40
474 Off ch=1 n=87 v=64
474 On ch=1 n=89 v=31
475 On ch=1 n=96 v=14
478 Off ch=1 n=78 v=64
479 Off ch=1 n=83 v=64
479 Off ch=1 n=93 v=64
480 Off ch=1 n=96 v=64
481 Off ch=1 n=62 v=64
481 Off ch=1 n=71 v=64
481 Off ch=1 n=81 v=64
481 Off ch=1 n=99 v=64
482 Off ch=1 n=89 v=64
484 Off ch=1 n=67 v=64
484 Off ch=1 n=74 v=64
492 On ch=1 n=67 v=58
492 On ch=1 n=70 v=28
492 On ch=1 n=75 v=23
493 On ch=1 n=56 v=30
493 On ch=1 n=60 v=66
494 On ch=1 n=46 v=31
494 On ch=1 n=76 v=22
494 On ch=1 n=82 v=35
495 Off ch=1 n=56 v=64
495 Off ch=1 n=70 v=64
496 Off ch=1 n=46 v=64
496 Off ch=1 n=75 v=64
499 Off ch=1 n=76 v=64
500 Off ch=1 n=82 v=64
502 Off ch=1 n=60 v=64
502 Off ch=1 n=67 v=64
504 On ch=1 n=76 v=69
504 On ch=1 n=79 v=67
504 On ch=1 n=95 v=53
504 On ch=1 n=98 v=35
510 On ch=1 n=74 v=64
510 On ch=1 n=78 v=60
510 On ch=1 n=94 v=53
510 On ch=1 n=97 v=34
511 On ch=1 n=67 v=69
511 On ch=1 n=75 v=61
511 On ch=1 n=89 v=30
511 On ch=1 n=103 v=33
512 Off ch=1 n=76 v=64
512 On ch=1 n=83 v=10
512 Off ch=1 n=95 v=64
512 Off ch=1 n=98 v=64
513 On ch=1 n=93 v=45
517 Off ch=1 n=75 v=64
517 On ch=1 n=77 v=66
517 On ch=1 n=92 v=29
517 On ch=1 n=95 v=30
517 On ch=1 n=96 v=42
517 On ch=1 n=102 v=33
518 Off ch=1 n=83 v=64
518 Off ch=1 n=89 v=64
519 Off ch=1 n=78 v=64
519 Off ch=1 n=97 v=64
520 Off ch=1 n=79 v=64
520 Off ch=1 n=92 v=64
520 Off ch=1 n=94 v=64
520 Off ch=1 n=95 v=64
520 Off ch=1 n=103 v=64
521 Off ch=1 n=67 v=64
523 On ch=1 n=71 v=66
523 On ch=1 n=75 v=67
523 On ch=1 n=90 v=46
523 On ch=1 n=94 v=47
523 On ch=1 n=99 v=33
523 On ch=1 n=103 v=31
524 Off ch=1 n=74 v=64
524 Off ch=1 n=93 v=64
524 Off ch=1 n=96 v=64
524 Off ch=1 n=102 v=64
525 Off ch=1 n=77 v=64
528 On ch=1 n=79 v=67
529 On ch=1 n=84 v=35
530 On ch=1 n=60 v=15
530 Off ch=1 n=71 v=64
530 On ch=1 n=72 v=77
530 On ch=1 n=88 v=19
530 Off ch=1 n=99 v=64
530 Off ch=1 n=103 v=64
531 Off ch=1 n=75 v=64
531 Off ch=1 n=90 v=64
535 Off ch=1 n=60 v=64
535 On ch=1 n=76 v=66
535 On ch=1 n=95 v=49
535 On ch=1 n=100 v=36
536 Off ch=1 n=88 v=64
537 Off ch=1 n=84 v=64
537 Off ch=1 n=94 v=64
539 Off ch=1 n=79 v=64
541 On ch=1 n=58 v=30
541 On ch=1 n=65 v=67
541 On ch=1 n=67 v=29
541 On ch=1 n=74 v=29
542 On ch=1 n=63 v=33
542 On ch=1 n=87 v=42
543 On ch=1 n=53 v=14
543 Off ch=1 n=95 v=64
543 Off ch=1 n=100 v=64
544 Off ch=1 n=58 v=64
544 Off ch=1 n=63 v=64
544 Off ch=1 n=67 v=64
544 Off ch=1 n=74 v=64
544 Off ch=1 n=76 v=64
544 On ch=1 n=81 v=14
547 Off ch=1 n=53 v=64
547 On ch=1 n=68 v=56
547 On ch=1 n=83 v=48
548 Off ch=1 n=81 v=64
548 On ch=1 n=92 v=34
548 On ch=1 n=96 v=32
548 On ch=1 n=98 v=16
548 On ch=1 n=102 v=10
549 On ch=1 n=64 v=53
550 Off ch=1 n=65 v=64
552 Off ch=1 n=72 v=64
553 On ch=1 n=84 v=50
553 On ch=1 n=88 v=42
554 On ch=1 n=93 v=33
554 Off ch=1 n=96 v=64
554 On ch=1 n=97 v=30
554 Off ch=1 n=98 v=64
554 Off ch=1 n=102 v=64
555 Off ch=1 n=64 v=64
555 On ch=1 n=65 v=56
555 Off ch=1 n=68 v=64
555 On ch=1 n=69 v=62
555 Off ch=1 n=83 v=64
555 Off ch=1 n=87 v=64
555 Off ch=1 n=92 v=64
557 On ch=1 n=103 v=9
559 On ch=1 n=79 v=66
560 On ch=1 n=67 v=42
560 On ch=1 n=72 v=80
560 On ch=1 n=86 v=43
560 On ch=1 n=94 v=47
560 On ch=1 n=95 v=34
560 Off ch=1 n=103 v=64
561 On ch=1 n=60 v=14
561 Off ch=1 n=65 v=64
561 Off ch=1 n=69 v=64
561 Off ch=1 n=93 v=64
561 Off ch=1 n=97 v=64
561 On ch=1 n=101 v=13
566 Off ch=1 n=60 v=64
566 Off ch=1 n=88 v=64
566 On ch=1 n=92 v=26
566 On ch=1 n=93 v=41
567 On ch=1 n=60 v=13
567 Off ch=1 n=86 v=64
568 Off ch=1 n=67 v=64
568 Off ch=1 n=101 v=64
569 On ch=1 n=88 v=49
569 Off ch=1 n=92 v=64
569 Off ch=1 n=93 v=64
569 Off ch=1 n=95 v=64
571 Off ch=1 n=60 v=64
572 On ch=1 n=69 v=56
572 On ch=1 n=97 v=33
573 On ch=1 n=60 v=40
574 Off ch=1 n=84 v=64
575 On ch=1 n=103 v=11
577 Off ch=1 n=72 v=64
578 On ch=1 n=65 v=71
578 On ch=1 n=72 v=59
578 On ch=1 n=83 v=46
578 On ch=1 n=87 v=30
578 On ch=1 n=92 v=32
578 Off ch=1 n=94 v=64
578 Off ch=1 n=103 v=64
579 Off ch=1 n=97 v=64
579 On ch=1 n=98 v=14
580 Off ch=1 n=60 v=64
580 Off ch=1 n=69 v=64
580 Off ch=1 n=79 v=64
580 Off ch=1 n=88 v=64
584 On ch=1 n=74 v=65
585 Off ch=1 n=92 v=64
585 On ch=1 n=93 v=50
585 Off ch=1 n=98 v=64
585 On ch=1 n=102 v=30
586 Off ch=1 n=83 v=64
586 Off ch=1 n=87 v=64
589 Off ch=1 n=72 v=64
590 On ch=1 n=67 v=58
591 On ch=1 n=69 v=37
591 On ch=1 n=72 v=37
591 On ch=1 n=82 v=34
592 On ch=1 n=60 v=65
592 On ch=1 n=76 v=24
592 Off ch=1 n=93 v=64
592 Off ch=1 n=102 v=64
593 Off ch=1 n=69 v=64
593 Off ch=1 n=74 v=64
594 Off ch=1 n=65 v=64
597 Off ch=1 n=76 v=64
599 Off ch=1 n=72 v=64
599 Off ch=1 n=82 v=64
600 Off ch=1 n=67 v=64
601 Off ch=1 n=60 v=64
602 On ch=1 n=76 v=69
602 On ch=1 n=79 v=67
602 On ch=1 n=95 v=53
603 On ch=1 n=98 v=33
609 On ch=1 n=64 v=63
609 On ch=1 n=71 v=60
609 On ch=1 n=75 v=62
609 On ch=1 n=78 v=61
609 On ch=1 n=86 v=29
609 On ch=1 n=94 v=53
609 On ch=1 n=97 v=34
609 On ch=1 n=103 v=34
610 Off ch=1 n=98 v=64
611 Off ch=1 n=79 v=64
611 On ch=1 n=80 v=19
611 Off ch=1 n=95 v=64
615 On ch=1 n=74 v=65
615 On ch=1 n=77 v=67
615 On ch=1 n=92 v=26
615 On ch=1 n=93 v=44
615 On ch=1 n=95 v=28
615 On ch=1 n=96 v=41
615 On ch=1 n=102 v=35
616 Off ch=1 n=86 v=64
617 Off ch=1 n=75 v=64
617 Off ch=1 n=76 v=64
617 Off ch=1 n=78 v=64
617 Off ch=1 n=80 v=64
617 Off ch=1 n=97 v=64
618 Off ch=1 n=92 v=64
618 Off ch=1 n=94 v=64
618 Off ch=1 n=95 v=64
618 Off ch=1 n=103 v=64
619 Off ch=1 n=64 v=64
619 Off ch=1 n=71 v=64
621 On ch=1 n=71 v=66
621 On ch=1 n=75 v=67
621 On ch=1 n=90 v=45
621 On ch=1 n=94 v=48
621 On ch=1 n=99 v=33
621 On ch=1 n=103 v=32
622 Off ch=1 n=74 v=64
622 Off ch=1 n=102 v=64
623 Off ch=1 n=77 v=64
623 Off ch=1 n=93 v=64
623 Off ch=1 n=96 v=64
627 On ch=1 n=67 v=72
627 On ch=1 n=74 v=65
628 On ch=1 n=89 v=34
628 Off ch=1 n=99 v=64
628 Off ch=1 n=103 v=64
629 Off ch=1 n=71 v=64
629 Off ch=1 n=75 v=64
629 Off ch=1 n=90 v=64
629 Off ch=1 n=94 v=64
630 On ch=1 n=83 v=15
630 On ch=1 n=93 v=12
633 On ch=1 n=95 v=49
634 On ch=1 n=72 v=79
634 On ch=1 n=76 v=55
634 Off ch=1 n=83 v=64
634 On ch=1 n=94 v=31
634 On ch=1 n=98 v=11
634 On ch=1 n=100 v=32
635 On ch=1 n=60 v=16
635 Off ch=1 n=89 v=64
635 Off ch=1 n=93 v=64
636 Off ch=1 n=74 v=64
637 Off ch=1 n=98 v=64
638 Off ch=1 n=67 v=64
640 Off ch=1 n=60 v=64
640 On ch=1 n=71 v=29
640 Off ch=1 n=94 v=64
641 Off ch=1 n=76 v=64
641 Off ch=1 n=95 v=64
641 Off ch=1 n=100 v=64
642 Off ch=1 n=71 v=64
644 Off ch=1 n=72 v=64
645 On ch=1 n=77 v=61
645 On ch=1 n=84 v=57
645 On ch=1 n=91 v=84
645 On ch=1 n=98 v=64
646 On ch=1 n=79 v=43
647 On ch=1 n=41 v=18
652 Off ch=1 n=41 v=64
653 Off ch=1 n=77 v=64
654 Off ch=1 n=84 v=64
655 Off ch=1 n=79 v=64
656 Off ch=1 n=98 v=64
658 On ch=1 n=77 v=61
658 On ch=1 n=79 v=47
658 On ch=1 n=84 v=57
658 On ch=1 n=98 v=62
659 On ch=1 n=41 v=16
664 On ch=1 n=93 v=26
664 On ch=1 n=94 v=30
665 Off ch=1 n=41 v=64
666 On ch=1 n=53 v=16
667 Off ch=1 n=93 v=64
667 Off ch=1 n=94 v=64
670 Off ch=1 n=53 v=64
672 Off ch=1 n=77 v=64
672 Off ch=1 n=84 v=64
673 Off ch=1 n=79 v=64
674 Off ch=1 n=98 v=64
675 Off ch=1 n=91 v=64
676 On ch=1 n=67 v=71
676 On ch=1 n=74 v=66
677 On ch=1 n=89 v=32
678 On ch=1 n=83 v=14
683 Off ch=1 n=83 v=64
685 Off ch=1 n=89 v=64
687 Off ch=1 n=67 v=64
687 Off ch=1 n=74 v=64
689 On ch=1 n=67 v=59
689 On ch=1 n=72 v=39
689 On ch=1 n=75 v=26
690 On ch=1 n=60 v=66
690 On ch=1 n=76 v=25
690 On ch=1 n=82 v=35
691 On ch=1 n=38 v=24
692 Off ch=1 n=75 v=64
694 Off ch=1 n=38 v=64
696 Off ch=1 n=76 v=64
697 Off ch=1 n=72 v=64
697 Off ch=1 n=82 v=64
699 Off ch=1 n=60 v=64
699 Off ch=1 n=67 v=64
701 On ch=1 n=76 v=69
701 On ch=1 n=79 v=67
701 On ch=1 n=95 v=54
701 On ch=1 n=98 v=36
707 On ch=1 n=67 v=68
707 On ch=1 n=74 v=64
707 On ch=1 n=78 v=61
707 On ch=1 n=94 v=54
707 On ch=1 n=97 v=35
707 On ch=1 n=103 v=34
708 On ch=1 n=75 v=61
708 On ch=1 n=89 v=31
709 Off ch=1 n=76 v=64
709 On ch=1 n=83 v=11
709 Off ch=1 n=95 v=64
709 Off ch=1 n=98 v=64
713 On ch=1 n=77 v=66
713 On ch=1 n=92 v=29
713 On ch=1 n=93 v=45
713 On ch=1 n=95 v=28
713 On ch=1 n=96 v=43
713 On ch=1 n=102 v=33
714 Off ch=1 n=79 v=64
715 Off ch=1 n=75 v=64
715 Off ch=1 n=83 v=64
715 Off ch=1 n=89 v=64
716 Off ch=1 n=78 v=64
716 Off ch=1 n=92 v=64
716 Off ch=1 n=95 v=64
716 Off ch=1 n=97 v=64
716 Off ch=1 n=103 v=64
717 Off ch=1 n=94 v=64
718 Off ch=1 n=67 v=64
719 On ch=1 n=71 v=66
719 On ch=1 n=75 v=67
720 On ch=1 n=90 v=45
720 On ch=1 n=94 v=48
720 On ch=1 n=99 v=33
720 Off ch=1 n=102 v=64
720 On ch=1 n=103 v=31
721 Off ch=1 n=74 v=64
721 Off ch=1 n=93 v=64
721 Off ch=1 n=96 v=64
722 Off ch=1 n=77 v=64
725 On ch=1 n=79 v=67
726 On ch=1 n=84 v=34
727 On ch=1 n=60 v=11
727 Off ch=1 n=71 v=64
727 On ch=1 n=72 v=77
727 On ch=1 n=88 v=17
727 Off ch=1 n=90 v=64
727 Off ch=1 n=99 v=64
727 Off ch=1 n=103 v=64
728 Off ch=1 n=75 v=64
731 Off ch=1 n=60 v=64
731 On ch=1 n=76 v=66
732 Off ch=1 n=88 v=64
732 On ch=1 n=95 v=50
732 On ch=1 n=100 v=37
734 Off ch=1 n=84 v=64
734 Off ch=1 n=94 v=64
736 Off ch=1 n=79 v=64
738 On ch=1 n=58 v=28
738 On ch=1 n=65 v=67
738 On ch=1 n=67 v=31
739 On ch=1 n=53 v=19
739 On ch=1 n=63 v=31
739 On ch=1 n=87 v=42
739 Off ch=1 n=100 v=64
740 Off ch=1 n=95 v=64
741 Off ch=1 n=58 v=64
741 Off ch=1 n=63 v=64
741 Off ch=1 n=67 v=64
741 Off ch=1 n=76 v=64
741 On ch=1 n=81 v=14
743 Off ch=1 n=53 v=64
744 On ch=1 n=68 v=56
744 Off ch=1 n=81 v=64
744 On ch=1 n=83 v=48
745 On ch=1 n=92 v=34
745 On ch=1 n=96 v=32
745 On ch=1 n=98 v=16
745 On ch=1 n=102 v=10
746 On ch=1 n=64 v=53
747 Off ch=1 n=65 v=64
749 Off ch=1 n=72 v=64
750 On ch=1 n=84 v=50
750 On ch=1 n=88 v=42
751 Off ch=1 n=64 v=64
751 On ch=1 n=65 v=56
751 Off ch=1 n=68 v=64
751 On ch=1 n=69 v=63
751 Off ch=1 n=92 v=64
751 On ch=1 n=93 v=34
751 Off ch=1 n=96 v=64
751 On ch=1 n=97 v=31
751 Off ch=1 n=98 v=64
751 Off ch=1 n=102 v=64
752 Off ch=1 n=83 v=64
752 Off ch=1 n=87 v=64
754 On ch=1 n=103 v=10
756 On ch=1 n=72 v=80
756 On ch=1 n=79 v=67
756 On ch=1 n=86 v=45
757 On ch=1 n=67 v=42
757 On ch=1 n=94 v=48
757 On ch=1 n=95 v=34
757 Off ch=1 n=97 v=64
757 On ch=1 n=101 v=13
757 Off ch=1 n=103 v=64
758 On ch=1 n=60 v=15
758 Off ch=1 n=65 v=64
758 Off ch=1 n=69 v=64
758 Off ch=1 n=93 v=64
762 Off ch=1 n=60 v=64
762 Off ch=1 n=88 v=64
762 Off ch=1 n=101 v=64
763 On ch=1 n=93 v=40
763 On ch=1 n=102 v=17
764 Off ch=1 n=67 v=64
764 Off ch=1 n=86 v=64
764 On ch=1 n=98 v=10
765 On ch=1 n=60 v=11
765 On ch=1 n=88 v=11
766 Off ch=1 n=93 v=64
766 Off ch=1 n=95 v=64
766 Off ch=1 n=102 v=64
767 Off ch=1 n=98 v=64
768 Off ch=1 n=60 v=64
768 Off ch=1 n=88 v=64
769 On ch=1 n=69 v=55
769 On ch=1 n=88 v=49
769 On ch=1 n=97 v=34
770 On ch=1 n=60 v=40
771 Off ch=1 n=84 v=64
772 On ch=1 n=103 v=12
773 Off ch=1 n=72 v=64
775 On ch=1 n=65 v=72
775 On ch=1 n=72 v=58
775 On ch=1 n=83 v=46
775 On ch=1 n=92 v=34
775 Off ch=1 n=94 v=64
775 On ch=1 n=98 v=14
775 Off ch=1 n=103 v=64
776 Off ch=1 n=60 v=64
776 Off ch=1 n=79 v=64
776 On ch=1 n=87 v=31
776 Off ch=1 n=88 v=64
776 Off ch=1 n=97 v=64
777 Off ch=1 n=69 v=64
780 On ch=1 n=74 v=65
781 On ch=1 n=93 v=52
781 Off ch=1 n=98 v=64
781 On ch=1 n=102 v=31
782 Off ch=1 n=83 v=64
782 Off ch=1 n=87 v=64
782 Off ch=1 n=92 v=64
785 Off ch=1 n=72 v=64
787 On ch=1 n=69 v=33
787 On ch=1 n=79 v=29
788 On ch=1 n=56 v=31
788 On ch=1 n=60 v=65
788 Off ch=1 n=65 v=64
788 On ch=1 n=67 v=58
788 Off ch=1 n=102 v=64
789 On ch=1 n=76 v=22
789 On ch=1 n=82 v=35
789 Off ch=1 n=93 v=64
790 Off ch=1 n=56 v=64
790 Off ch=1 n=69 v=64
790 Off ch=1 n=74 v=64
794 Off ch=1 n=76 v=64
795 Off ch=1 n=79 v=64
795 Off ch=1 n=82 v=64
797 Off ch=1 n=60 v=64
797 Off ch=1 n=67 v=64
799 On ch=1 n=68 v=78
799 On ch=1 n=75 v=54
799 On ch=1 n=94 v=53
800 On ch=1 n=84 v=16
800 On ch=1 n=90 v=35
800 On ch=1 n=96 v=37
800 On ch=1 n=103 v=34
805 Off ch=1 n=84 v=64
807 Off ch=1 n=90 v=64
807 Off ch=1 n=94 v=64
807 Off ch=1 n=96 v=64
807 Off ch=1 n=103 v=64
810 Off ch=1 n=68 v=64
810 Off ch=1 n=75 v=64
812 On ch=1 n=93 v=39
812 On ch=1 n=94 v=46
812 On ch=1 n=95 v=30
815 Off ch=1 n=93 v=64
815 Off ch=1 n=94 v=64
815 Off ch=1 n=95 v=64
817 On ch=1 n=77 v=65
818 On ch=1 n=65 v=41
818 On ch=1 n=70 v=73
818 On ch=1 n=74 v=51
818 On ch=1 n=84 v=41
818 On ch=1 n=92 v=34
818 On ch=1 n=93 v=51
818 On ch=1 n=102 v=27
820 On ch=1 n=99 v=9
824 Off ch=1 n=99 v=64
825 Off ch=1 n=65 v=64
825 Off ch=1 n=84 v=64
825 Off ch=1 n=93 v=64
825 Off ch=1 n=102 v=64
826 Off ch=1 n=74 v=64
826 Off ch=1 n=92 v=64
828 Off ch=1 n=77 v=64
829 Off ch=1 n=70 v=64
836 On ch=1 n=64 v=34
836 On ch=1 n=72 v=77
836 On ch=1 n=79 v=59
836 On ch=1 n=94 v=32
837 On ch=1 n=69 v=32
837 On ch=1 n=82 v=14
837 On ch=1 n=83 v=40
837 On ch=1 n=86 v=21
837 On ch=1 n=92 v=31
837 On ch=1 n=93 v=16
837 On ch=1 n=100 v=28
838 On ch=1 n=60 v=21
838 On ch=1 n=88 v=16
839 Off ch=1 n=69 v=64
840 Off ch=1 n=82 v=64
840 Off ch=1 n=86 v=64
840 Off ch=1 n=93 v=64
842 Off ch=1 n=60 v=64
842 Off ch=1 n=88 v=64
844 Off ch=1 n=64 v=64
844 Off ch=1 n=83 v=64
844 Off ch=1 n=92 v=64
844 Off ch=1 n=94 v=64
844 Off ch=1 n=100 v=64
846 Off ch=1 n=79 v=64
847 Off ch=1 n=72 v=64
855 On ch=1 n=67 v=71
855 On ch=1 n=74 v=62
855 On ch=1 n=89 v=35
857 On ch=1 n=83 v=13
857 On ch=1 n=93 v=39
861 On ch=1 n=92 v=30
861 On ch=1 n=94 v=44
861 On ch=1 n=95 v=28
864 Off ch=1 n=92 v=64
864 Off ch=1 n=93 v=64
864 Off ch=1 n=95 v=64
865 Off ch=1 n=94 v=64
867 Off ch=1 n=83 v=64
869 Off ch=1 n=89 v=64
872 Off ch=1 n=67 v=64
872 Off ch=1 n=74 v=64
873 On ch=1 n=67 v=58
874 On ch=1 n=60 v=64
875 On ch=1 n=76 v=17
875 On ch=1 n=82 v=33
880 Off ch=1 n=76 v=64
881 Off ch=1 n=82 v=64
883 Off ch=1 n=60 v=64
883 Off ch=1 n=67 v=64
885 On ch=1 n=63 v=47
885 On ch=1 n=72 v=60
885 On ch=1 n=92 v=32
885 On ch=1 n=93 v=39
886 On ch=1 n=56 v=53
886 On ch=1 n=68 v=60
886 On ch=1 n=78 v=28
886 On ch=1 n=87 v=42
886 On ch=1 n=91 v=42
886 On ch=1 n=94 v=44
886 On ch=1 n=96 v=30
886 On ch=1 n=100 v=29
886 On ch=1 n=102 v=17
888 Off ch=1 n=92 v=64
888 Off ch=1 n=93 v=64
889 Off ch=1 n=94 v=64
894 Off ch=1 n=78 v=64
895 Off ch=1 n=56 v=64
895 Off ch=1 n=63 v=64
898 Off ch=1 n=102 v=64
899 Off ch=1 n=68 v=64
899 Off ch=1 n=87 v=64
899 Off ch=1 n=91 v=64
899 Off ch=1 n=96 v=64
899 Off ch=1 n=100 v=64
900 Off ch=1 n=72 v=64
904 On ch=1 n=68 v=49
904 On ch=1 n=70 v=57
904 On ch=1 n=72 v=53
904 On ch=1 n=87 v=41
904 On ch=1 n=91 v=39
904 On ch=1 n=93 v=39
904 On ch=1 n=94 v=43
904 On ch=1 n=100 v=27
905 On ch=1 n=63 v=61
905 On ch=1 n=85 v=23
905 On ch=1 n=96 v=25
905 On ch=1 n=102 v=17
907 Off ch=1 n=93 v=64
907 Off ch=1 n=94 v=64
910 Off ch=1 n=102 v=64
911 Off ch=1 n=85 v=64
911 Off ch=1 n=87 v=64
911 Off ch=1 n=91 v=64
911 Off ch=1 n=96 v=64
911 Off ch=1 n=100 v=64
912 Off ch=1 n=68 v=64
912 Off ch=1 n=72 v=64
914 Off ch=1 n=63 v=64
914 Off ch=1 n=70 v=64
916 On ch=1 n=68 v=65
916 On ch=1 n=72 v=60
916 On ch=1 n=87 v=41
916 On ch=1 n=91 v=41
917 On ch=1 n=96 v=27
917 On ch=1 n=100 v=27
922 On ch=1 n=70 v=50
922 On ch=1 n=75 v=59
922 On ch=1 n=92 v=30
922 On ch=1 n=93 v=39
923 On ch=1 n=89 v=40
923 On ch=1 n=90 v=21
923 On ch=1 n=94 v=41
923 On ch=1 n=98 v=25
923 On ch=1 n=102 v=26
924 Off ch=1 n=72 v=64
924 On ch=1 n=74 v=51
924 Off ch=1 n=91 v=64
924 Off ch=1 n=100 v=64
925 Off ch=1 n=96 v=64
926 Off ch=1 n=94 v=64
927 Off ch=1 n=92 v=64
929 Off ch=1 n=87 v=64
929 Off ch=1 n=102 v=64
930 Off ch=1 n=70 v=64
930 Off ch=1 n=74 v=64
930 Off ch=1 n=89 v=64
930 Off ch=1 n=90 v=64
930 Off ch=1 n=93 v=64
930 Off ch=1 n=98 v=64
932 Off ch=1 n=75 v=64
933 Off ch=1 n=68 v=64
934 On ch=1 n=74 v=56
934 On ch=1 n=76 v=54
935 On ch=1 n=67 v=68
935 On ch=1 n=89 v=24
935 On ch=1 n=93 v=31
935 On ch=1 n=94 v=42
935 On ch=1 n=95 v=42
938 Off ch=1 n=93 v=64
938 Off ch=1 n=94 v=64
941 On ch=1 n=64 v=40
941 On ch=1 n=72 v=52
941 On ch=1 n=83 v=38
941 On ch=1 n=91 v=42
941 On ch=1 n=92 v=28
942 Off ch=1 n=89 v=64
942 On ch=1 n=100 v=27
943 Off ch=1 n=76 v=64
943 Off ch=1 n=95 v=64
945 Off ch=1 n=67 v=64
945 Off ch=1 n=74 v=64
948 Off ch=1 n=83 v=64
948 Off ch=1 n=91 v=64
948 Off ch=1 n=92 v=64
948 Off ch=1 n=100 v=64
949 Off ch=1 n=64 v=64
949 Off ch=1 n=72 v=64
953 On ch=1 n=64 v=41
953 On ch=1 n=67 v=50
953 On ch=1 n=69 v=50
953 On ch=1 n=92 v=22
953 On ch=1 n=93 v=37
953 On ch=1 n=94 v=41
954 On ch=1 n=60 v=55
954 On ch=1 n=82 v=24
954 On ch=1 n=83 v=37
954 On ch=1 n=88 v=33
954 On ch=1 n=97 v=21
954 On ch=1 n=98 v=18
956 Off ch=1 n=93 v=64
956 Off ch=1 n=94 v=64
958 Off ch=1 n=98 v=64
960 Off ch=1 n=64 v=64
960 Off ch=1 n=83 v=64
960 On ch=1 n=86 v=36
960 Off ch=1 n=92 v=64
960 On ch=1 n=95 v=27
960 Off ch=1 n=97 v=64
961 Off ch=1 n=60 v=64
961 Off ch=1 n=69 v=64
961 Off ch=1 n=82 v=64
962 On ch=1 n=60 v=37
966 Off ch=1 n=88 v=64
967 Off ch=1 n=60 v=64
967 Off ch=1 n=67 v=64
967 Off ch=1 n=86 v=64
967 Off ch=1 n=95 v=64
972 On ch=1 n=55 v=48
972 On ch=1 n=62 v=42
974 On ch=1 n=77 v=26
979 Off ch=1 n=77 v=64
980 Off ch=1 n=55 v=64
980 Off ch=1 n=62 v=64
984 On ch=1 n=56 v=45
984 On ch=1 n=63 v=41
984 On ch=1 n=68 v=53
984 On ch=1 n=72 v=53
984 On ch=1 n=92 v=23
984 On ch=1 n=93 v=34
984 On ch=1 n=94 v=38
985 On ch=1 n=78 v=21
985 On ch=1 n=87 v=34
985 On ch=1 n=91 v=35
985 On ch=1 n=96 v=23
985 On ch=1 n=100 v=21
987 Off ch=1 n=92 v=64
987 Off ch=1 n=93 v=64
987 Off ch=1 n=94 v=64
991 Off ch=1 n=78 v=64
993 Off ch=1 n=56 v=64
993 Off ch=1 n=63 v=64
997 Off ch=1 n=87 v=64
997 Off ch=1 n=91 v=64
997 Off ch=1 n=96 v=64
997 Off ch=1 n=100 v=64
998 Off ch=1 n=68 v=64
998 Off ch=1 n=72 v=64
1002 On ch=1 n=70 v=49
1002 On ch=1 n=72 v=46
1002 On ch=1 n=93 v=28
1002 On ch=1 n=94 v=36
1003 On ch=1 n=63 v=53
1003 On ch=1 n=68 v=41
1003 On ch=1 n=85 v=17
1003 On ch=1 n=87 v=34
1003 On ch=1 n=91 v=31
1003 On ch=1 n=96 v=17
1003 On ch=1 n=100 v=16
1005 Off ch=1 n=93 v=64
1006 Off ch=1 n=94 v=64
1009 Off ch=1 n=85 v=64
1009 Off ch=1 n=87 v=64
1009 Off ch=1 n=96 v=64
1009 Off ch=1 n=100 v=64
1010 Off ch=1 n=68 v=64
1010 Off ch=1 n=72 v=64
1010 Off ch=1 n=91 v=64
1012 Off ch=1 n=63 v=64
1012 Off ch=1 n=70 v=64
1015 On ch=1 n=68 v=58
1015 On ch=1 n=72 v=52
1015 On ch=1 n=87 v=33
1015 On ch=1 n=91 v=31
1016 On ch=1 n=96 v=19
1016 On ch=1 n=100 v=17
1021 On ch=1 n=70 v=40
1021 On ch=1 n=75 v=51
1021 On ch=1 n=89 v=31
1021 On ch=1 n=93 v=29
1021 On ch=1 n=94 v=31
1021 On ch=1 n=98 v=16
1021 Off ch=1 n=100 v=64
1021 On ch=1 n=102 v=19
1022 Off ch=1 n=72 v=64
1022 On ch=1 n=74 v=42
1022 On ch=1 n=90 v=15
1022 Off ch=1 n=91 v=64
1022 Off ch=1 n=96 v=64
1024 Off ch=1 n=94 v=64
1026 Off ch=1 n=87 v=64
1027 On ch=1 n=76 v=51
1027 Off ch=1 n=90 v=64
1027 On ch=1 n=95 v=36
1027 Off ch=1 n=98 v=64
1027 Off ch=1 n=102 v=64
1028 On ch=1 n=67 v=56
1028 Off ch=1 n=70 v=64
1028 Off ch=1 n=74 v=64
1028 Off ch=1 n=89 v=64
1028 Off ch=1 n=93 v=64
1030 Off ch=1 n=68 v=64
1031 Off ch=1 n=75 v=64
1033 On ch=1 n=74 v=49
1033 On ch=1 n=93 v=25
1034 On ch=1 n=94 v=29
1035 Off ch=1 n=76 v=64
1035 On ch=1 n=89 v=10
1035 Off ch=1 n=95 v=64
1036 Off ch=1 n=93 v=64
1036 Off ch=1 n=94 v=64
1039 Off ch=1 n=89 v=64
1043 Off ch=1 n=67 v=64
1043 Off ch=1 n=74 v=64
1052 On ch=1 n=60 v=47
1052 On ch=1 n=67 v=41
1052 On ch=1 n=94 v=34
1053 On ch=1 n=82 v=17
1055 Off ch=1 n=94 v=64
1058 Off ch=1 n=82 v=64
1060 Off ch=1 n=67 v=64
1061 Off ch=1 n=60 v=64
1071 On ch=1 n=55 v=36
1071 On ch=1 n=62 v=29
1072 On ch=1 n=77 v=11
1076 Off ch=1 n=77 v=64
1077 Off ch=1 n=62 v=64
1078 Off ch=1 n=55 v=64
1083 On ch=1 n=56 v=30
1083 On ch=1 n=63 v=26
1083 On ch=1 n=68 v=37
1083 On ch=1 n=72 v=38
1083 On ch=1 n=87 v=19
1083 On ch=1 n=91 v=19
1089 Off ch=1 n=63 v=64
1090 Off ch=1 n=56 v=64
1095 Off ch=1 n=87 v=64
1095 Off ch=1 n=91 v=64
1096 Off ch=1 n=68 v=64
1096 Off ch=1 n=72 v=64
1101 On ch=1 n=70 v=31
1101 On ch=1 n=72 v=27
1102 On ch=1 n=63 v=37
1102 On ch=1 n=68 v=24
1102 On ch=1 n=87 v=17
1102 On ch=1 n=91 v=14
1107 Off ch=1 n=87 v=64
1107 Off ch=1 n=91 v=64
1108 Off ch=1 n=68 v=64
1108 Off ch=1 n=70 v=64
1108 Off ch=1 n=72 v=64
1109 Off ch=1 n=63 v=64
1113 On ch=1 n=72 v=32
1114 On ch=1 n=68 v=36
1114 On ch=1 n=87 v=12
1116 On ch=1 n=91 v=11
1119 Off ch=1 n=87 v=64
1119 Off ch=1 n=91 v=64
1120 On ch=1 n=70 v=20
1120 Off ch=1 n=72 v=64
1120 On ch=1 n=75 v=30
1121 On ch=1 n=74 v=20
1123 On ch=1 n=89 v=10
1126 Off ch=1 n=70 v=64
1126 Off ch=1 n=74 v=64
1126 Off ch=1 n=89 v=64
1127 Off ch=1 n=68 v=64
1127 Off ch=1 n=75 v=64
1132 On ch=1 n=67 v=33
1132 On ch=1 n=74 v=21
1132 On ch=1 n=76 v=19
1138 Off ch=1 n=74 v=64
1138 Off ch=1 n=76 v=64
1139 Off ch=1 n=67 v=64
1140 On ch=1 n=72 v=14
1145 Off ch=1 n=72 v=64
1152 On ch=1 n=60 v=10
1155 Off ch=1 n=60 v=64
1155 Meta TrkEnd
TrkEnd
